<svg xmlns="http://www.w3.org/2000/svg" width="14" height="14" fill="none"><mask id="a" width="14" height="14" x="0" y="0" maskUnits="userSpaceOnUse" style="mask-type:alpha"><path fill="#fff" d="M8.945 13.75V8.846h1.663l.248-1.864H8.945V5.775c0-.55.15-.924.948-.924h1.044V3.134a14.79 14.79 0 0 0-1.496-.071c-1.468 0-2.46.892-2.46 2.512v1.407H5.312v1.864H6.98l-.003 4.904H1.375C.76 13.75.25 13.24.25 12.625V1.375C.25.76.76.25 1.375.25h11.25c.615 0 1.125.51 1.125 1.125v11.25c0 .615-.51 1.125-1.125 1.125h-3.68Z"/></mask><g mask="url(#a)"><path fill="#fff" d="M8.945 13.75V8.846h1.663l.248-1.864H8.945V5.775c0-.55.15-.924.948-.924h1.044V3.134a14.79 14.79 0 0 0-1.496-.071c-1.468 0-2.46.892-2.46 2.512v1.407H5.312v1.864H6.98l-.003 4.904H1.375C.76 13.75.25 13.24.25 12.625V1.375C.25.76.76.25 1.375.25h11.25c.615 0 1.125.51 1.125 1.125v11.25c0 .615-.51 1.125-1.125 1.125h-3.68Z"/></g></svg>