<svg width="20" height="20" viewBox="0 0 20 20" fill="none" xmlns="http://www.w3.org/2000/svg">
<path d="M0 10C0 4.47715 4.47715 0 10 0C15.5228 0 20 4.47715 20 10C20 15.5228 15.5228 20 10 20C4.47715 20 0 15.5228 0 10Z" fill="#A5C926"/>
<path d="M13.3184 10.7051C13.3184 11.4004 13.2656 12.0215 13.1602 12.5684C13.0547 13.1152 12.8887 13.5781 12.6621 13.957C12.4355 14.3359 12.1426 14.625 11.7832 14.8242C11.4238 15.0195 10.9922 15.1172 10.4883 15.1172C9.85156 15.1172 9.32422 14.9434 8.90625 14.5957C8.49219 14.248 8.18164 13.7461 7.97461 13.0898C7.77148 12.4297 7.66992 11.6348 7.66992 10.7051C7.66992 9.79102 7.76172 9.00586 7.94531 8.34961C8.13281 7.68945 8.43359 7.18359 8.84766 6.83203C9.26172 6.47656 9.80859 6.29883 10.4883 6.29883C11.1328 6.29883 11.6641 6.47461 12.082 6.82617C12.5 7.17383 12.8105 7.67773 13.0137 8.33789C13.2168 8.99414 13.3184 9.7832 13.3184 10.7051ZM8.64844 10.7051C8.64844 11.502 8.70898 12.166 8.83008 12.6973C8.95117 13.2285 9.14648 13.627 9.41602 13.8926C9.68945 14.1543 10.0469 14.2852 10.4883 14.2852C10.9297 14.2852 11.2852 14.1543 11.5547 13.8926C11.8281 13.6309 12.0254 13.2344 12.1465 12.7031C12.2715 12.1719 12.334 11.5059 12.334 10.7051C12.334 9.91992 12.2734 9.26367 12.1523 8.73633C12.0312 8.20508 11.8359 7.80664 11.5664 7.54102C11.2969 7.27148 10.9375 7.13672 10.4883 7.13672C10.0391 7.13672 9.67969 7.27148 9.41016 7.54102C9.14062 7.80664 8.94531 8.20508 8.82422 8.73633C8.70703 9.26367 8.64844 9.91992 8.64844 10.7051Z" fill="white"/>
</svg>
