<svg width="63" height="63" viewBox="0 0 63 63" fill="none" xmlns="http://www.w3.org/2000/svg">
<rect width="63" height="63" fill="#A5C926"/>
<path d="M40.9599 19.5233C40.8104 19.406 40.6061 19.389 40.4377 19.4798L17.1877 32.0736C17.0193 32.1644 16.9209 32.3479 16.9398 32.539C16.9568 32.7301 17.0855 32.8928 17.2671 32.9515L23.8762 35.1085L23.2367 41.6513C23.2159 41.8595 23.3313 42.0562 23.5224 42.1376C23.5829 42.166 23.6492 42.1792 23.7135 42.1792C23.8478 42.1792 23.9803 42.1225 24.073 42.0165L28.2413 37.3071L34.5173 43.4942C34.6082 43.5831 34.7292 43.6323 34.8541 43.6323C34.8976 43.6323 34.9412 43.6248 34.9847 43.6134C35.1493 43.568 35.278 43.4356 35.3196 43.2691L41.1321 20.0191C41.1775 19.8336 41.1113 19.6387 40.9599 19.5233ZM24.8487 35.0195L34.2997 27.3774L27.8591 36.2948L24.3341 40.2739L24.8487 35.0195Z" fill="white"/>
</svg>
