<svg width="16" height="12" viewBox="0 0 16 12" fill="none" xmlns="http://www.w3.org/2000/svg">
<mask id="mask0_1_26" style="mask-type:alpha" maskUnits="userSpaceOnUse" x="0" y="0" width="16" height="12">
<path d="M8 0.375C10.1184 0.375 11.9904 0.594938 13.1328 0.762C14.0778 0.900375 14.84 1.61194 15.0138 2.55469C15.1629 3.35906 15.3125 4.53469 15.3125 6C15.3125 7.46531 15.1606 8.64094 15.0138 9.44531C14.84 10.3881 14.0778 11.1019 13.1328 11.238C11.9859 11.4051 10.1071 11.625 8 11.625C5.89287 11.625 4.01413 11.4051 2.86719 11.238C1.92219 11.1019 1.16 10.3881 0.986187 9.44531C0.839375 8.64319 0.6875 7.46981 0.6875 6C0.6875 4.53019 0.839375 3.35681 0.986187 2.55469C1.16 1.61194 1.92219 0.900375 2.86719 0.762C4.00962 0.594938 5.88162 0.375 8 0.375ZM6.3125 2.78306V9.21694L7.15625 8.74219L11.0938 6.49219L11.9375 6L11.0938 5.50781L7.15625 3.25781L6.3125 2.78306Z" fill="white"/>
</mask>
<g mask="url(#mask0_1_26)">
<path d="M8 0.375C10.1184 0.375 11.9904 0.594938 13.1328 0.762C14.0778 0.900375 14.84 1.61194 15.0138 2.55469C15.1629 3.35906 15.3125 4.53469 15.3125 6C15.3125 7.46531 15.1606 8.64094 15.0138 9.44531C14.84 10.3881 14.0778 11.1019 13.1328 11.238C11.9859 11.4051 10.1071 11.625 8 11.625C5.89287 11.625 4.01413 11.4051 2.86719 11.238C1.92219 11.1019 1.16 10.3881 0.986187 9.44531C0.839375 8.64319 0.6875 7.46981 0.6875 6C0.6875 4.53019 0.839375 3.35681 0.986187 2.55469C1.16 1.61194 1.92219 0.900375 2.86719 0.762C4.00962 0.594938 5.88162 0.375 8 0.375ZM6.3125 2.78306V9.21694L7.15625 8.74219L11.0938 6.49219L11.9375 6L11.0938 5.50781L7.15625 3.25781L6.3125 2.78306Z" fill="white"/>
</g>
</svg>
