<svg width="88" height="20" viewBox="0 0 88 20" fill="none" xmlns="http://www.w3.org/2000/svg">
<path d="M6.384 15.105C6.118 15.105 5.894 15.014 5.712 14.832C5.53 14.65 5.439 14.426 5.439 14.16V2.127H1.155C0.903 2.127 0.693 2.043 0.525 1.875C0.357 1.707 0.273 1.497 0.273 1.245C0.273 0.992999 0.357 0.782999 0.525 0.614999C0.693 0.432999 0.903 0.342 1.155 0.342H11.613C11.865 0.342 12.075 0.432999 12.243 0.614999C12.425 0.782999 12.516 0.992999 12.516 1.245C12.516 1.497 12.425 1.707 12.243 1.875C12.075 2.043 11.865 2.127 11.613 2.127H7.35V14.16C7.35 14.426 7.252 14.65 7.056 14.832C6.874 15.014 6.65 15.105 6.384 15.105ZM17.8274 15.21C16.7494 15.21 15.8044 14.979 14.9924 14.517C14.1804 14.055 13.5504 13.404 13.1024 12.564C12.6684 11.71 12.4514 10.737 12.4514 9.645C12.4514 8.553 12.6684 7.587 13.1024 6.747C13.5504 5.893 14.1804 5.235 14.9924 4.773C15.8044 4.311 16.7494 4.08 17.8274 4.08C18.8914 4.08 19.8294 4.311 20.6414 4.773C21.4534 5.235 22.0834 5.893 22.5314 6.747C22.9794 7.587 23.2034 8.553 23.2034 9.645C23.2034 10.737 22.9794 11.71 22.5314 12.564C22.0834 13.404 21.4534 14.055 20.6414 14.517C19.8294 14.979 18.8914 15.21 17.8274 15.21ZM17.8274 13.467C18.4014 13.467 18.9474 13.334 19.4654 13.068C19.9974 12.802 20.4314 12.382 20.7674 11.808C21.1174 11.234 21.2924 10.506 21.2924 9.624C21.2924 8.756 21.1174 8.035 20.7674 7.461C20.4314 6.887 19.9974 6.474 19.4654 6.222C18.9474 5.956 18.4014 5.823 17.8274 5.823C17.2394 5.823 16.6794 5.956 16.1474 6.222C15.6294 6.474 15.2024 6.887 14.8664 7.461C14.5304 8.035 14.3624 8.756 14.3624 9.624C14.3624 10.506 14.5304 11.234 14.8664 11.808C15.2024 12.382 15.6294 12.802 16.1474 13.068C16.6794 13.334 17.2394 13.467 17.8274 13.467ZM28.1292 19.935C27.8772 19.935 27.6602 19.844 27.4782 19.662C27.3102 19.48 27.2262 19.263 27.2262 19.011C27.2262 18.899 27.2472 18.787 27.2892 18.675L28.6542 15.168L24.7062 5.55C24.6502 5.41 24.6222 5.277 24.6222 5.151C24.6222 4.885 24.7132 4.661 24.8952 4.479C25.0772 4.283 25.3012 4.185 25.5672 4.185C25.7632 4.185 25.9382 4.241 26.0922 4.353C26.2602 4.465 26.3792 4.605 26.4492 4.773L29.6832 12.795L32.9802 4.815C33.1622 4.395 33.4562 4.185 33.8622 4.185C34.1282 4.185 34.3522 4.283 34.5342 4.479C34.7162 4.661 34.8072 4.885 34.8072 5.151C34.8072 5.277 34.7862 5.396 34.7442 5.508L29.0112 19.284C28.8152 19.718 28.5212 19.935 28.1292 19.935ZM42.0125 15.21C40.2345 15.21 38.5685 14.874 37.0145 14.202C36.8465 14.132 36.7065 14.02 36.5945 13.866C36.4825 13.698 36.4265 13.523 36.4265 13.341C36.4265 13.103 36.5035 12.9 36.6575 12.732C36.8255 12.55 37.0355 12.459 37.2875 12.459C37.4275 12.459 37.5605 12.487 37.6865 12.543C38.9745 13.117 40.3535 13.404 41.8235 13.404C44.2735 13.404 45.4985 12.599 45.4985 10.989C45.4985 10.569 45.3375 10.219 45.0155 9.939C44.7075 9.659 44.3225 9.442 43.8605 9.288C43.3985 9.12 42.7405 8.924 41.8865 8.7C40.7525 8.406 39.8355 8.126 39.1355 7.86C38.4355 7.58 37.8335 7.167 37.3295 6.621C36.8255 6.075 36.5735 5.347 36.5735 4.437C36.5735 3.639 36.7835 2.918 37.2035 2.274C37.6235 1.616 38.2395 1.098 39.0515 0.72C39.8775 0.328 40.8645 0.132 42.0125 0.132C43.5525 0.132 44.9455 0.363 46.1915 0.825C46.5835 0.965 46.7795 1.245 46.7795 1.665C46.7795 1.889 46.7025 2.092 46.5485 2.274C46.3945 2.456 46.1915 2.547 45.9395 2.547C45.8555 2.547 45.7435 2.519 45.6035 2.463C44.5115 2.085 43.3845 1.896 42.2225 1.896C41.1165 1.896 40.2135 2.106 39.5135 2.526C38.8275 2.946 38.4845 3.534 38.4845 4.29C38.4845 4.794 38.6455 5.207 38.9675 5.529C39.3035 5.837 39.7165 6.082 40.2065 6.264C40.7105 6.432 41.3895 6.614 42.2435 6.81C43.3495 7.076 44.2385 7.342 44.9105 7.608C45.5965 7.874 46.1775 8.287 46.6535 8.847C47.1435 9.407 47.3885 10.163 47.3885 11.115C47.3885 11.899 47.1645 12.606 46.7165 13.236C46.2685 13.852 45.6385 14.335 44.8265 14.685C44.0145 15.035 43.0765 15.21 42.0125 15.21ZM53.1792 15.21C51.1352 15.21 50.1132 14.286 50.1132 12.438V5.928H48.6222C48.5102 5.928 48.4122 5.893 48.3282 5.823C48.2582 5.739 48.2232 5.641 48.2232 5.529C48.2232 5.389 48.2862 5.27 48.4122 5.172L51.2682 2.379C51.3942 2.253 51.5132 2.19 51.6252 2.19C51.7372 2.19 51.8282 2.232 51.8982 2.316C51.9822 2.4 52.0242 2.498 52.0242 2.61V4.29H54.3972C54.6352 4.29 54.8312 4.367 54.9852 4.521C55.1392 4.675 55.2162 4.871 55.2162 5.109C55.2162 5.333 55.1392 5.529 54.9852 5.697C54.8312 5.851 54.6352 5.928 54.3972 5.928H52.0242V12.27C52.0242 12.816 52.1502 13.166 52.4022 13.32C52.6682 13.46 52.9972 13.53 53.3892 13.53C53.6692 13.53 53.9492 13.488 54.2292 13.404C54.2852 13.39 54.3412 13.376 54.3972 13.362C54.4672 13.348 54.5512 13.341 54.6492 13.341C54.8452 13.341 55.0202 13.418 55.1742 13.572C55.3282 13.712 55.4052 13.887 55.4052 14.097C55.4052 14.419 55.2442 14.664 54.9222 14.832C54.3762 15.084 53.7952 15.21 53.1792 15.21ZM62.0832 15.21C61.0052 15.21 60.0602 14.979 59.2482 14.517C58.4362 14.055 57.8062 13.404 57.3582 12.564C56.9242 11.71 56.7072 10.737 56.7072 9.645C56.7072 8.553 56.9242 7.587 57.3582 6.747C57.8062 5.893 58.4362 5.235 59.2482 4.773C60.0602 4.311 61.0052 4.08 62.0832 4.08C63.1472 4.08 64.0852 4.311 64.8972 4.773C65.7092 5.235 66.3392 5.893 66.7872 6.747C67.2352 7.587 67.4592 8.553 67.4592 9.645C67.4592 10.737 67.2352 11.71 66.7872 12.564C66.3392 13.404 65.7092 14.055 64.8972 14.517C64.0852 14.979 63.1472 15.21 62.0832 15.21ZM62.0832 13.467C62.6572 13.467 63.2032 13.334 63.7212 13.068C64.2532 12.802 64.6872 12.382 65.0232 11.808C65.3732 11.234 65.5482 10.506 65.5482 9.624C65.5482 8.756 65.3732 8.035 65.0232 7.461C64.6872 6.887 64.2532 6.474 63.7212 6.222C63.2032 5.956 62.6572 5.823 62.0832 5.823C61.4952 5.823 60.9352 5.956 60.4032 6.222C59.8852 6.474 59.4582 6.887 59.1222 7.461C58.7862 8.035 58.6182 8.756 58.6182 9.624C58.6182 10.506 58.7862 11.234 59.1222 11.808C59.4582 12.382 59.8852 12.802 60.4032 13.068C60.9352 13.334 61.4952 13.467 62.0832 13.467ZM71.0796 15.105C70.8136 15.105 70.5896 15.014 70.4076 14.832C70.2256 14.65 70.1346 14.426 70.1346 14.16V5.151C70.1346 4.885 70.2256 4.661 70.4076 4.479C70.5896 4.283 70.8136 4.185 71.0796 4.185C71.3456 4.185 71.5696 4.283 71.7516 4.479C71.9476 4.661 72.0456 4.885 72.0456 5.151V6.054C73.0256 4.738 74.1246 4.08 75.3426 4.08H75.4476C75.7136 4.08 75.9306 4.171 76.0986 4.353C76.2806 4.535 76.3716 4.759 76.3716 5.025C76.3716 5.291 76.2806 5.508 76.0986 5.676C75.9166 5.844 75.6856 5.928 75.4056 5.928H75.3006C74.6286 5.928 74.0126 6.096 73.4526 6.432C72.8926 6.754 72.4236 7.202 72.0456 7.776V14.16C72.0456 14.426 71.9476 14.65 71.7516 14.832C71.5696 15.014 71.3456 15.105 71.0796 15.105ZM82.654 15.21C80.946 15.21 79.609 14.727 78.643 13.761C77.691 12.781 77.215 11.409 77.215 9.645C77.215 8.651 77.397 7.734 77.761 6.894C78.125 6.054 78.685 5.375 79.441 4.857C80.197 4.339 81.128 4.08 82.234 4.08C83.27 4.08 84.166 4.325 84.922 4.815C85.678 5.291 86.252 5.935 86.644 6.747C87.036 7.545 87.232 8.42 87.232 9.372C87.232 9.638 87.141 9.862 86.959 10.044C86.791 10.226 86.56 10.317 86.266 10.317H79.147C79.259 11.297 79.623 12.06 80.239 12.606C80.855 13.152 81.716 13.425 82.822 13.425C83.41 13.425 83.921 13.369 84.355 13.257C84.803 13.145 85.237 12.984 85.657 12.774C85.769 12.718 85.895 12.69 86.035 12.69C86.259 12.69 86.455 12.767 86.623 12.921C86.791 13.075 86.875 13.271 86.875 13.509C86.875 13.817 86.693 14.076 86.329 14.286C85.783 14.594 85.244 14.825 84.712 14.979C84.18 15.133 83.494 15.21 82.654 15.21ZM85.342 8.763C85.3 8.077 85.118 7.503 84.796 7.041C84.488 6.579 84.103 6.243 83.641 6.033C83.179 5.809 82.71 5.697 82.234 5.697C81.758 5.697 81.289 5.809 80.827 6.033C80.365 6.243 79.98 6.579 79.672 7.041C79.364 7.503 79.189 8.077 79.147 8.763H85.342Z" fill="white"/>
</svg>
