<svg xmlns="http://www.w3.org/2000/svg" width="14" height="14" fill="none"><path fill="#fff" fill-rule="evenodd" d="M.25 4.146A3.896 3.896 0 0 1 4.146.25h5.708a3.896 3.896 0 0 1 3.896 3.896v5.708a3.896 3.896 0 0 1-3.896 3.896H4.146A3.896 3.896 0 0 1 .25 9.854V4.146Zm1.222.116v5.476c0 1.543 1.25 2.79 2.79 2.79h5.476c1.543 0 2.79-1.25 2.79-2.79V4.262c0-1.543-1.25-2.79-2.79-2.79H4.262a2.788 2.788 0 0 0-2.79 2.79ZM7 10.433a3.433 3.433 0 1 1 0-6.866 3.433 3.433 0 0 1 0 6.866Zm0-1.222A2.211 2.211 0 1 0 7 4.79 2.211 2.211 0 0 0 7 9.21Zm3.55-5.004a.815.815 0 1 1 0-1.63.815.815 0 0 1 0 1.63Z" clip-rule="evenodd"/></svg>