<svg width="24" height="20" viewBox="0 0 24 20" fill="none" xmlns="http://www.w3.org/2000/svg">
<mask id="mask0_1_65" style="mask-type:alpha" maskUnits="userSpaceOnUse" x="0" y="0" width="24" height="20">
<path d="M1 0C0.449219 0 0 0.449219 0 1C0 1.55078 0.449219 2 1 2H3.21875L5.84375 12.5C6.06641 13.3906 6.86328 14 7.78125 14H19.25C20.1523 14 20.918 13.4023 21.1562 12.5312L23.75 3H7L7.5 5H21.1562L19.25 12H7.78125L5.15625 1.5C4.93359 0.609375 4.13672 0 3.21875 0H1ZM18 14C16.3555 14 15 15.3555 15 17C15 18.6445 16.3555 20 18 20C19.6445 20 21 18.6445 21 17C21 15.3555 19.6445 14 18 14ZM9 14C7.35547 14 6 15.3555 6 17C6 18.6445 7.35547 20 9 20C10.6445 20 12 18.6445 12 17C12 15.3555 10.6445 14 9 14ZM9 16C9.5625 16 10 16.4375 10 17C10 17.5625 9.5625 18 9 18C8.4375 18 8 17.5625 8 17C8 16.4375 8.4375 16 9 16ZM18 16C18.5625 16 19 16.4375 19 17C19 17.5625 18.5625 18 18 18C17.4375 18 17 17.5625 17 17C17 16.4375 17.4375 16 18 16Z" fill="white"/>
</mask>
<g mask="url(#mask0_1_65)">
<path d="M1 0C0.449219 0 0 0.449219 0 1C0 1.55078 0.449219 2 1 2H3.21875L5.84375 12.5C6.06641 13.3906 6.86328 14 7.78125 14H19.25C20.1523 14 20.918 13.4023 21.1562 12.5312L23.75 3H7L7.5 5H21.1562L19.25 12H7.78125L5.15625 1.5C4.93359 0.609375 4.13672 0 3.21875 0H1ZM18 14C16.3555 14 15 15.3555 15 17C15 18.6445 16.3555 20 18 20C19.6445 20 21 18.6445 21 17C21 15.3555 19.6445 14 18 14ZM9 14C7.35547 14 6 15.3555 6 17C6 18.6445 7.35547 20 9 20C10.6445 20 12 18.6445 12 17C12 15.3555 10.6445 14 9 14ZM9 16C9.5625 16 10 16.4375 10 17C10 17.5625 9.5625 18 9 18C8.4375 18 8 17.5625 8 17C8 16.4375 8.4375 16 9 16ZM18 16C18.5625 16 19 16.4375 19 17C19 17.5625 18.5625 18 18 18C17.4375 18 17 17.5625 17 17C17 16.4375 17.4375 16 18 16Z" fill="#222222"/>
</g>
</svg>
