<svg xmlns="http://www.w3.org/2000/svg" width="14" height="14" fill="none"><mask id="a" width="14" height="14" x="0" y="0" maskUnits="userSpaceOnUse" style="mask-type:alpha"><path fill="#fff" d="M7 .25a6.749 6.749 0 0 0-2.459 13.036c-.06-.534-.114-1.353.022-1.938l.791-3.355s-.2-.404-.2-1.002c0-.938.543-1.639 1.22-1.639.575 0 .855.433.855.951 0 .58-.37 1.446-.56 2.248-.159.673.338 1.22.999 1.22 1.2 0 2.123-1.266 2.123-3.092 0-1.615-1.16-2.744-2.82-2.744-1.92 0-3.047 1.439-3.047 2.929 0 .58.224 1.202.503 1.54a.204.204 0 0 1 .046.193l-.187.765c-.03.125-.098.152-.226.09-.844-.391-1.371-1.624-1.371-2.615 0-2.129 1.547-4.084 4.46-4.084 2.343 0 4.162 1.667 4.162 3.9 0 2.325-1.468 4.197-3.502 4.197-.684 0-1.328-.354-1.547-.774L5.84 11.68c-.152.587-.563 1.32-.84 1.769A6.749 6.749 0 0 0 13.75 7 6.749 6.749 0 0 0 7 .25Z"/></mask><g mask="url(#a)"><path fill="#fff" d="M7 .25a6.749 6.749 0 0 0-2.459 13.036c-.06-.534-.114-1.353.022-1.938l.791-3.355s-.2-.404-.2-1.002c0-.938.543-1.639 1.22-1.639.575 0 .855.433.855.951 0 .58-.37 1.446-.56 2.248-.159.673.338 1.22.999 1.22 1.2 0 2.123-1.266 2.123-3.092 0-1.615-1.16-2.744-2.82-2.744-1.92 0-3.047 1.439-3.047 2.929 0 .58.224 1.202.503 1.54a.204.204 0 0 1 .046.193l-.187.765c-.03.125-.098.152-.226.09-.844-.391-1.371-1.624-1.371-2.615 0-2.129 1.547-4.084 4.46-4.084 2.343 0 4.162 1.667 4.162 3.9 0 2.325-1.468 4.197-3.502 4.197-.684 0-1.328-.354-1.547-.774L5.84 11.68c-.152.587-.563 1.32-.84 1.769A6.749 6.749 0 0 0 13.75 7 6.749 6.749 0 0 0 7 .25Z"/></g></svg>