<svg width="14" height="11" viewBox="0 0 14 11" fill="none" xmlns="http://www.w3.org/2000/svg">
<path d="M8.18945 0.127804C11.1289 1.83624 13.7895 4.51922 13.8605 4.64074C14 4.76464 14 4.88616 14 5.06964C14 5.19116 13.9289 5.37463 13.8605 5.49615C13.7895 5.61767 11.0605 8.30065 8.18945 10.0091C7.97891 10.1306 7.7 10.1306 7.42109 10.071C7.21055 9.94952 7 9.76605 7 9.52062V7.26415C7 7.26415 0.910547 6.95916 0.628907 6.77569C0.278907 6.41113 0 5.67962 0 5.00769C0 4.33575 0.278907 3.66619 0.628907 3.42077C0.910547 3.29925 7 2.87274 7 2.87274V0.616268C7 0.370845 7.13945 0.189755 7.42109 0.0658523C7.62891 -0.0556684 7.91055 0.00628297 8.18945 0.127804Z" fill="#111111"/>
</svg>
