<svg xmlns="http://www.w3.org/2000/svg" width="14" height="12" fill="none"><path fill="#fff" fill-rule="evenodd" d="M13.75 1.676c-.497.22-1.03.37-1.59.435A2.776 2.776 0 0 0 13.375.579a5.578 5.578 0 0 1-1.757.673 2.77 2.77 0 0 0-4.72 2.524A7.85 7.85 0 0 1 1.19.882c-.24.41-.376.886-.376 1.394 0 .96.487 1.808 1.232 2.305a2.752 2.752 0 0 1-1.254-.348v.036c0 1.342.953 2.463 2.221 2.715a2.765 2.765 0 0 1-1.25.049A2.775 2.775 0 0 0 4.35 8.958a5.557 5.557 0 0 1-4.1 1.144 7.83 7.83 0 0 0 4.245 1.246c5.095 0 7.882-4.22 7.882-7.882 0-.118-.005-.24-.01-.358a5.67 5.67 0 0 0 1.383-1.432Z" clip-rule="evenodd"/></svg>