<svg xmlns="http://www.w3.org/2000/svg" width="16" height="12" fill="none"><mask id="a" width="16" height="12" x="0" y="0" maskUnits="userSpaceOnUse" style="mask-type:alpha"><path fill="#fff" d="M8 .375c2.118 0 3.99.22 5.133.387.945.138 1.707.85 1.88 1.793.15.804.3 1.98.3 3.445 0 1.465-.152 2.64-.3 3.445a2.226 2.226 0 0 1-1.88 1.793A36.327 36.327 0 0 1 8 11.625c-2.107 0-3.986-.22-5.133-.387a2.226 2.226 0 0 1-1.88-1.793A19.196 19.196 0 0 1 .686 6c0-1.47.152-2.643.3-3.445A2.229 2.229 0 0 1 2.866.762 36.13 36.13 0 0 1 8 .375ZM6.312 2.783v6.434l.844-.475 3.938-2.25.844-.492-.844-.492-3.938-2.25-.843-.475Z"/></mask><g mask="url(#a)"><path fill="#fff" d="M8 .375c2.118 0 3.99.22 5.133.387.945.138 1.707.85 1.88 1.793.15.804.3 1.98.3 3.445 0 1.465-.152 2.64-.3 3.445a2.226 2.226 0 0 1-1.88 1.793A36.327 36.327 0 0 1 8 11.625c-2.107 0-3.986-.22-5.133-.387a2.226 2.226 0 0 1-1.88-1.793A19.196 19.196 0 0 1 .686 6c0-1.47.152-2.643.3-3.445A2.229 2.229 0 0 1 2.866.762 36.13 36.13 0 0 1 8 .375ZM6.312 2.783v6.434l.844-.475 3.938-2.25.844-.492-.844-.492-3.938-2.25-.843-.475Z"/></g></svg>